<svg width="24" height="24" viewBox="0 0 24 24" fill="none" xmlns="http://www.w3.org/2000/svg">
<path d="M17 3C17 2.447 16.552 2 16 2C15.448 2 15 2.447 15 3H9C9 2.447 8.552 2 8 2C7.448 2 7 2.447 7 3C4.243 3 2 5.243 2 8V18C2 20.757 4.243 23 7 23H17C19.757 23 22 20.757 22 18V8C22 5.243 19.757 3 17 3ZM7 5V6C7 6.553 7.448 7 8 7C8.552 7 9 6.553 9 6V5H15V6C15 6.553 15.448 7 16 7C16.552 7 17 6.553 17 6V5C18.654 5 20 6.346 20 8H4C4 6.346 5.346 5 7 5ZM17 21H7C5.346 21 4 19.654 4 18V10H20V18C20 19.654 18.654 21 17 21Z" fill="#B0B1F6"/>
<path d="M11.8681 14.5723C12.887 14.5759 13.7161 13.7792 13.7198 12.7927C13.7235 11.8062 12.9005 11.0036 11.8816 11C10.8627 10.9964 10.0337 11.7932 10.0299 12.7796C10.0262 13.7661 10.8492 14.5687 11.8681 14.5723Z" fill="#B0B1F6"/>
<path d="M15.7081 19.5L15.9053 18.836C16.0471 18.3592 16.0294 17.8512 15.8546 17.3847C15.6799 16.9182 15.3571 16.5173 14.9326 16.2393L13.3205 15.1843C12.8959 14.9064 12.3914 14.7658 11.8792 14.7826C11.367 14.7994 10.8734 14.9728 10.4693 15.2779L8.93468 16.4363C8.53051 16.7414 8.23648 17.1626 8.09472 17.6394C7.95296 18.1162 7.97076 18.6242 8.14556 19.0906L8.28917 19.4737" fill="#B0B1F6"/>
</svg>
