<svg width="20" height="20" viewBox="0 0 20 20" fill="none" xmlns="http://www.w3.org/2000/svg">
<path d="M17.2251 12.9316L16.3034 11.3941C15.9926 10.8758 15.8292 10.2841 15.8292 9.68075V7.49162C15.8292 4.27995 13.2142 1.66663 10.0001 1.66663C6.78591 1.66663 4.1709 4.27995 4.1709 7.49162V9.68075C4.1709 10.2841 4.00673 10.8758 3.69673 11.3933L2.77506 12.9316C2.41506 13.5316 2.40674 14.2525 2.7509 14.8608C3.09507 15.4691 3.71923 15.8333 4.41923 15.8333H7.49923C7.49923 17.2116 8.6209 18.3333 9.99923 18.3333C11.3776 18.3333 12.4992 17.2116 12.4992 15.8333H15.5801C16.2801 15.8333 16.9042 15.4691 17.2492 14.8608C17.5934 14.2525 17.5842 13.5307 17.2251 12.9316ZM9.99923 16.6666C9.54007 16.6666 9.1659 16.2933 9.1659 15.8333H10.8326C10.8326 16.2933 10.4584 16.6666 9.99923 16.6666ZM15.7984 14.04C15.7717 14.0875 15.7076 14.1666 15.5801 14.1666H4.4184C4.2909 14.1666 4.22673 14.0866 4.20007 14.04C4.1734 13.9933 4.1384 13.8975 4.2034 13.7891L5.12507 12.2499C5.59007 11.4733 5.83674 10.5849 5.83674 9.68075V7.49162C5.83674 5.19828 7.70423 3.33329 9.99923 3.33329C12.2942 3.33329 14.1617 5.19828 14.1617 7.49162V9.68075C14.1617 10.5849 14.4076 11.4733 14.8734 12.2508L15.7959 13.7891C15.8601 13.8975 15.8251 13.9925 15.7984 14.04Z" fill="#B0B1F6"/>
</svg>
