<svg width="9" height="16" viewBox="0 0 9 16" fill="none" xmlns="http://www.w3.org/2000/svg">
<path d="M3.97217 9.37285L3.82617 9.37287C3.59034 9.3729 3.39919 9.5641 3.39922 9.79993L3.39924 9.94593C3.39927 10.1818 3.59047 10.3729 3.82629 10.3729L3.97229 10.3729C4.20812 10.3728 4.39927 10.1816 4.39924 9.9458L4.39922 9.7998C4.39919 9.56398 4.208 9.37283 3.97217 9.37285Z" stroke="#5D5FEF" stroke-width="0.3" stroke-miterlimit="10"/>
<path d="M8.82766 1.98442L8.82928 15.1552C8.82932 15.5092 8.45057 15.8276 8.02128 15.8276L7.06167 15.6612L6.85964 15.6196C6.75282 15.6012 6.64726 15.5763 6.54145 15.553L6.54145 15.5563L5.13561 15.2649L5.11541 15.262L4.89646 15.2164L0.00163385 14.16L0.059185 13.9789L5.12245 15.0715C5.26235 15.1002 5.37978 15.0866 5.48002 15.0298C5.66713 14.9234 5.75044 14.6947 5.783 14.5716C5.82091 10.7305 5.87776 6.87396 5.91264 3.03533C5.91274 2.76664 5.80418 2.50561 5.60415 2.29352C5.40411 2.08143 5.12403 1.93041 4.8082 1.86434L0.001008 0.856445L7.45833 0.855529C7.82144 0.85554 8.16968 0.974469 8.42647 1.18616C8.68325 1.39786 8.82756 1.68499 8.82766 1.98442Z" fill="#5D5FEF"/>
<path d="M5.11372 15.2616C5.09756 15.2591 5.08114 15.256 5.06448 15.2527L4.89478 15.2161L5.11372 15.2616Z" fill="#5D5FEF"/>
<path d="M4.89465 15.2161L4.69263 15.1744L4.89465 15.2161Z" fill="#5D5FEF"/>
</svg>
