<svg width="22" height="23" viewBox="0 0 22 23" fill="none" xmlns="http://www.w3.org/2000/svg">
<path d="M17.2251 15.9316L16.3034 14.3941C15.9926 13.8758 15.8292 13.2841 15.8292 12.6807V10.4916C15.8292 7.27995 13.2142 4.66663 10.0001 4.66663C6.78591 4.66663 4.1709 7.27995 4.1709 10.4916V12.6807C4.1709 13.2841 4.00673 13.8758 3.69673 14.3933L2.77506 15.9316C2.41506 16.5316 2.40674 17.2525 2.7509 17.8608C3.09507 18.4691 3.71923 18.8333 4.41923 18.8333H7.49923C7.49923 20.2116 8.6209 21.3333 9.99923 21.3333C11.3776 21.3333 12.4992 20.2116 12.4992 18.8333H15.5801C16.2801 18.8333 16.9042 18.4691 17.2492 17.8608C17.5934 17.2525 17.5842 16.5307 17.2251 15.9316ZM9.99923 19.6666C9.54007 19.6666 9.1659 19.2933 9.1659 18.8333H10.8326C10.8326 19.2933 10.4584 19.6666 9.99923 19.6666ZM15.7984 17.04C15.7717 17.0875 15.7076 17.1666 15.5801 17.1666H4.4184C4.2909 17.1666 4.22673 17.0866 4.20007 17.04C4.1734 16.9933 4.1384 16.8975 4.2034 16.7891L5.12507 15.2499C5.59007 14.4733 5.83674 13.5849 5.83674 12.6807V10.4916C5.83674 8.19828 7.70423 6.33329 9.99923 6.33329C12.2942 6.33329 14.1617 8.19828 14.1617 10.4916V12.6807C14.1617 13.5849 14.4076 14.4733 14.8734 15.2508L15.7959 16.7891C15.8601 16.8975 15.8251 16.9925 15.7984 17.04Z" fill="#B0B1F6"/>
<path d="M18.8631 4.58248L19.6756 3.76998C19.8868 3.55873 19.8868 3.2121 19.6756 3.00085C19.4643 2.7896 19.1177 2.7896 18.9064 3.00085L18.0939 3.81335C18.0614 3.85127 18.0398 3.88917 18.0181 3.92708C17.4493 3.52083 16.7723 3.24462 16.041 3.15254V2.30208H16.5827C16.8806 2.30208 17.1243 2.05833 17.1243 1.76042C17.1243 1.4625 16.8806 1.21875 16.5827 1.21875H14.416C14.1181 1.21875 13.8743 1.4625 13.8743 1.76042C13.8743 2.05833 14.1181 2.30208 14.416 2.30208H14.9577V3.15254C12.8235 3.41795 11.166 5.24333 11.166 7.44792C11.166 9.83667 13.1106 11.7812 15.4993 11.7812C17.8881 11.7812 19.8327 9.83667 19.8327 7.44792C19.8327 6.37 19.4373 5.38961 18.7873 4.63128C18.8089 4.61503 18.8414 4.60415 18.8631 4.58248ZM16.9185 9.2246C16.821 9.30585 16.7018 9.34375 16.5827 9.34375C16.4256 9.34375 16.2685 9.2734 16.1602 9.13798L15.0768 7.78381C15.001 7.69173 14.9577 7.5725 14.9577 7.44792V5.55208C14.9577 5.25417 15.2014 5.01042 15.4993 5.01042C15.7973 5.01042 16.041 5.25417 16.041 5.55208V7.25828L17.0052 8.46619C17.1948 8.6991 17.1568 9.04043 16.9185 9.2246Z" fill="#B0B1F6"/>
</svg>
