<svg width="18" height="20" viewBox="0 0 18 20" fill="none" xmlns="http://www.w3.org/2000/svg">
<path fill-rule="evenodd" clip-rule="evenodd" d="M8.71429 5.42857C9.50326 5.42857 10.1429 6.06817 10.1429 6.85714C10.1429 7.64612 9.50326 8.28572 8.71429 8.28572C7.92531 8.28572 7.28571 7.64612 7.28571 6.85714C7.28571 6.06817 7.92531 5.42857 8.71429 5.42857ZM8.71429 4.28572C10.1344 4.28572 11.2857 5.43698 11.2857 6.85714C11.2857 8.2773 10.1344 9.42857 8.71429 9.42857C7.29413 9.42857 6.14286 8.2773 6.14286 6.85714C6.14286 5.43698 7.29413 4.28572 8.71429 4.28572Z" fill="#B0B1F6"/>
<path d="M7.85714 8.85714C7.85714 8.54155 8.11298 8.28572 8.42857 8.28572C8.74416 8.28572 9 8.54155 9 8.85714V14.5714C9 14.887 8.74416 15.1429 8.42857 15.1429C8.11298 15.1429 7.85714 14.887 7.85714 14.5714V8.85714Z" fill="#B0B1F6"/>
<path d="M10.1429 12.2857C10.4584 12.2857 10.7143 12.5416 10.7143 12.8571C10.7143 13.1727 10.4584 13.4286 10.1429 13.4286H8.42857C8.11298 13.4286 7.85714 13.1727 7.85714 12.8571C7.85714 12.5416 8.11298 12.2857 8.42857 12.2857H10.1429Z" fill="#B0B1F6"/>
<path d="M17.315 4.052C14.249 3.03 10.5181 1.10197 9.72705 0.297974C9.54105 0.109974 9.28703 0.002 9.02203 0C8.74803 0.006 8.50105 0.101964 8.31305 0.287964C7.35805 1.22896 4.45403 3.11497 0.728027 4.16797C0.297027 4.28897 0 4.68301 0 5.13001C0 13.489 1.30601 17.841 8.72601 19.962C8.81601 19.987 8.90904 20 9.00104 20C9.09304 20 9.186 19.987 9.276 19.962C16.694 17.842 18 13.448 18 5C17.999 4.569 17.724 4.188 17.315 4.052ZM9 17.958C3.256 16.235 2.07201 13.204 2.00201 5.87305C5.13701 4.88005 7.66305 3.384 9.03705 2.302C10.605 3.406 13.616 4.84299 15.995 5.70899C15.93 13.16 14.754 16.231 9 17.958Z" fill="#B0B1F6"/>
</svg>
