<svg width="17" height="20" viewBox="0 0 17 20" fill="none" xmlns="http://www.w3.org/2000/svg">
<path d="M3.74 14.3933L0.906667 18.8133H4.64667L6.23333 16.4333H11.22L12.58 18.8133H16.2067L13.26 14.3933L8.5 15.7533L3.74 14.3933Z" fill="#B0B1F6"/>
<path fill-rule="evenodd" clip-rule="evenodd" d="M8.5 12.4667C10.6907 12.4667 12.4667 10.6907 12.4667 8.5C12.4667 6.30927 10.6907 4.53333 8.5 4.53333C6.30927 4.53333 4.53333 6.30927 4.53333 8.5C4.53333 10.6907 6.30927 12.4667 8.5 12.4667ZM8.5 13.3733C11.1915 13.3733 13.3733 11.1915 13.3733 8.5C13.3733 5.80853 11.1915 3.62667 8.5 3.62667C5.80853 3.62667 3.62667 5.80853 3.62667 8.5C3.62667 11.1915 5.80853 13.3733 8.5 13.3733Z" fill="#B0B1F6"/>
<path fill-rule="evenodd" clip-rule="evenodd" d="M8.5 15.4186C12.321 15.4186 15.4186 12.321 15.4186 8.5C15.4186 4.67896 12.321 1.5814 8.5 1.5814C4.67896 1.5814 1.5814 4.67896 1.5814 8.5C1.5814 12.321 4.67896 15.4186 8.5 15.4186ZM8.5 17C13.1944 17 17 13.1944 17 8.5C17 3.80558 13.1944 0 8.5 0C3.80558 0 0 3.80558 0 8.5C0 13.1944 3.80558 17 8.5 17Z" fill="#B0B1F6"/>
<path fill-rule="evenodd" clip-rule="evenodd" d="M8.5 7.36667C7.87408 7.36667 7.36667 7.87408 7.36667 8.5C7.36667 9.12592 7.87408 9.63333 8.5 9.63333C9.12592 9.63333 9.63333 9.12592 9.63333 8.5C9.63333 7.87408 9.12592 7.36667 8.5 7.36667ZM6.23333 8.5C6.23333 7.24815 7.24815 6.23333 8.5 6.23333C9.75185 6.23333 10.7667 7.24815 10.7667 8.5C10.7667 9.75184 9.75185 10.7667 8.5 10.7667C7.24815 10.7667 6.23333 9.75184 6.23333 8.5Z" fill="#B0B1F6"/>
<path d="M0.906667 18.8133H16.32V19.4933H0.906667V18.8133Z" fill="#B0B1F6"/>
</svg>
