<svg width="20" height="14" viewBox="0 0 20 14" fill="none" xmlns="http://www.w3.org/2000/svg">
<path d="M5.75621 0.59514C5.75621 0.266453 6.05832 0 6.431 0H19.3252C19.6979 0 20 0.266453 20 0.59514V2.95986C20 3.28855 19.6979 3.555 19.3252 3.555H6.431C6.05832 3.555 5.75621 3.28855 5.75621 2.95986V0.59514Z" fill="#5D5FEF"/>
<path d="M5.75621 5.22552C5.75621 4.89684 6.05832 4.63038 6.431 4.63038H19.3252C19.6979 4.63038 20 4.89684 20 5.22552V7.60608C20 7.93477 19.6979 8.20122 19.3252 8.20122H6.431C6.05832 8.20122 5.75621 7.93477 5.75621 7.60608V5.22552Z" fill="#5D5FEF"/>
<path fill-rule="evenodd" clip-rule="evenodd" d="M4.27051 0.899696L1.90873 3.13147C1.81509 3.21996 1.6847 3.27112 1.54747 3.2732C1.41024 3.27529 1.27794 3.22813 1.18089 3.14253L0 2.10104L0.715726 1.4698L1.5262 2.1846L3.53054 0.290584L4.27051 0.899696Z" fill="#5D5FEF"/>
<path fill-rule="evenodd" clip-rule="evenodd" d="M4.27051 5.95838L1.90873 8.19016C1.81509 8.27865 1.6847 8.3298 1.54747 8.33189C1.41024 8.33398 1.27794 8.28682 1.18089 8.20122L0 7.15973L0.715726 6.52849L1.5262 7.24329L3.53054 5.34927L4.27051 5.95838Z" fill="#5D5FEF"/>
<path d="M5.75621 10.0678C5.75621 9.73909 6.05832 9.47264 6.431 9.47264H18.4556C18.8283 9.47264 19.1304 9.73909 19.1304 10.0678V12.4483C19.1304 12.777 18.8283 13.0435 18.4556 13.0435H6.431C6.05832 13.0435 5.75621 12.777 5.75621 12.4483V10.0678Z" fill="#5D5FEF"/>
</svg>
