<svg width="23" height="28" viewBox="0 0 23 28" fill="none" xmlns="http://www.w3.org/2000/svg">
<path fill-rule="evenodd" clip-rule="evenodd" d="M16.5156 5.7946C16.6894 5.4939 17.0741 5.39107 17.3748 5.56491L20.442 7.33815C22.025 8.25333 23 9.94313 23 11.7717V18.7049C23 20.5328 22.0257 22.2221 20.4435 23.1375L13.4805 27.1661C11.796 28.1407 9.70465 28.0763 8.08332 26.9998L2.2885 23.1525C0.859157 22.2035 0 20.6018 0 18.8861V11.6873C0 9.91065 0.920848 8.26093 2.43309 7.32838L5.27793 5.57407C5.57357 5.39175 5.96103 5.48363 6.14334 5.77927C6.32565 6.07491 6.23378 6.46237 5.93814 6.64468L3.0933 8.399C1.95249 9.1025 1.25781 10.347 1.25781 11.6873V18.8861C1.25781 20.1804 1.90595 21.3887 2.98422 22.1046L8.77905 25.952C10.0022 26.764 11.5798 26.8126 12.8506 26.0774L19.8136 22.0488C21.0072 21.3582 21.7422 20.0838 21.7422 18.7049V11.7717C21.7422 10.3922 21.0067 9.11749 19.8125 8.42708L16.7453 6.65384C16.4446 6.48 16.3417 6.0953 16.5156 5.7946Z" fill="#B0B1F6"/>
<path d="M9.87544 24.2135L7.00044 21.608H15.8051L12.6606 24.0338C11.5106 24.9681 10.3247 24.5429 9.87544 24.2135Z" fill="#B0B1F6"/>
<path d="M11.2457 15.7981C12.4587 15.8024 13.4456 14.8539 13.45 13.6796C13.4545 12.5053 12.4748 11.5498 11.2618 11.5455C10.0488 11.5412 9.06195 12.4897 9.05751 13.664C9.05307 14.8383 10.0328 15.7938 11.2457 15.7981Z" fill="#B0B1F6"/>
<path d="M15.817 21.6641L16.0517 20.8737C16.2205 20.3061 16.1994 19.7013 15.9914 19.146C15.7834 18.5907 15.3992 18.1134 14.8938 17.7825L12.9747 16.5266C12.4693 16.1958 11.8686 16.0284 11.2589 16.0484C10.6492 16.0684 10.0616 16.2748 9.58055 16.638L7.7537 18.0171C7.27256 18.3803 6.92253 18.8816 6.75378 19.4492C6.58503 20.0168 6.60622 20.6216 6.8143 21.1768L6.98527 21.6328" fill="#B0B1F6"/>
<path fill-rule="evenodd" clip-rule="evenodd" d="M8.07791 16.0684L7.08624 15.5773C6.63495 15.3538 6.12112 15.275 5.61839 15.3523C5.11567 15.4295 4.64987 15.6589 4.28779 16.0074L2.91284 17.3308C2.55072 17.6793 2.31088 18.1291 2.2277 18.6158C2.14451 19.1025 2.22225 19.6009 2.44976 20.0398L2.63668 20.4003L2.6721 20.3962L5.28596 22.2488C5.53521 22.3892 6.01948 22.5319 6.55541 22.4133L6.22703 22.1805L6.1729 22.1869L5.88724 21.6359C5.53952 20.9652 5.42072 20.2033 5.54785 19.4596C5.67499 18.7158 6.04154 18.0283 6.59497 17.4957L8.07791 16.0684ZM5.58258 15.1464C6.58706 15.0292 7.30957 14.1458 7.19636 13.1733C7.08314 12.2008 6.17706 11.5074 5.17258 11.6246C4.16809 11.7418 3.44558 12.6252 3.5588 13.5977C3.67201 14.5702 4.57809 15.2636 5.58258 15.1464Z" fill="#B0B1F6"/>
<path fill-rule="evenodd" clip-rule="evenodd" d="M14.8102 16.0684L15.8018 15.5773C16.2531 15.3538 16.767 15.275 17.2697 15.3523C17.7724 15.4295 18.2382 15.6589 18.6003 16.0074L19.9752 17.3308C20.3373 17.6793 20.5772 18.1291 20.6604 18.6158C20.7436 19.1025 20.6658 19.6009 20.4383 20.0398L20.2514 20.4003L20.216 20.3962L17.6021 22.2488C17.3529 22.3892 16.8686 22.5319 16.3327 22.4133L16.661 22.1805L16.7152 22.1869L17.0008 21.6359C17.3485 20.9652 17.4673 20.2033 17.3402 19.4596C17.2131 18.7158 16.8465 18.0283 16.2931 17.4957L14.8102 16.0684ZM17.3055 15.1464C16.301 15.0292 15.5785 14.1458 15.6917 13.1733C15.8049 12.2008 16.711 11.5074 17.7155 11.6246C18.72 11.7418 19.4425 12.6252 19.3293 13.5977C19.2161 14.5702 18.31 15.2636 17.3055 15.1464Z" fill="#B0B1F6"/>
<path fill-rule="evenodd" clip-rule="evenodd" d="M11.1406 8.80468C13.572 8.80468 15.543 6.83369 15.543 4.40234C15.543 1.971 13.572 0 11.1406 0C8.70927 0 6.73828 1.971 6.73828 4.40234C6.73828 6.83369 8.70927 8.80468 11.1406 8.80468ZM13.6441 3.68655C13.8939 3.44514 13.9006 3.047 13.6592 2.79727C13.4178 2.54754 13.0197 2.54079 12.7699 2.7822L10.503 4.97354L9.68185 4.21101C9.42732 3.97467 9.02938 3.98941 8.79304 4.24394C8.5567 4.49846 8.57144 4.89639 8.82596 5.13273L9.95903 6.18486C10.2739 6.4772 10.7623 6.4723 11.0712 6.1737L13.6441 3.68655Z" fill="#B0B1F6"/>
</svg>
