<svg width="16" height="19" viewBox="0 0 16 19" fill="none" xmlns="http://www.w3.org/2000/svg">
<path d="M6.59867 7.3004C8.28152 7.30636 9.65072 5.99045 9.65688 4.36122C9.66304 2.732 8.30382 1.40641 6.62098 1.40045C4.93814 1.39449 3.56893 2.7104 3.56277 4.33963C3.55661 5.96885 4.91583 7.29444 6.59867 7.3004Z" fill="#C9CAFF"/>
<path d="M12.7842 16.0671L13.1098 14.9705C13.344 14.183 13.3148 13.3439 13.0262 12.5735C12.7376 11.8031 12.2045 11.1409 11.5034 10.6818L8.84081 8.93937C8.13962 8.48039 7.30633 8.24815 6.4604 8.27592C5.61448 8.3037 4.79935 8.59007 4.13189 9.09398L1.59735 11.0072C0.92983 11.5111 0.444209 12.2066 0.210086 12.9941C-0.0240364 13.7816 0.00535795 14.6207 0.294056 15.391L0.531246 16.0237" fill="#C9CAFF"/>
<path d="M12.6591 5.33333V0H14.0075V5.33333H12.6591ZM10.6667 3.34087V1.99247H16V3.34087H10.6667Z" fill="#C9CAFF"/>
<path d="M0 17.3333H13.3333V18.6667H0V17.3333Z" fill="#C9CAFF"/>
</svg>
